<svg viewBox="0 0 32 32" xmlns="http://www.w3.org/2000/svg" xmlns:xlink="http://www.w3.org/1999/xlink" width="32.000000" height="32.000000" fill="none" customFrame="#000000">
	<path id="Path 2104" d="M30.667 3.75128e-07L1.334 3.75128e-07C1.15886 -0.00013101 0.985418 0.0342511 0.823576 0.101182C0.661733 0.168112 0.514667 0.26628 0.39078 0.390073C0.266894 0.513867 0.168616 0.66086 0.101564 0.822652C0.0345121 0.984444 -4.92817e-08 1.15786 5.27788e-14 1.333L5.31605e-14 30.667C-4.92817e-08 30.8421 0.0345121 31.0156 0.101564 31.1773C0.168616 31.3391 0.266894 31.4861 0.39078 31.6099C0.514667 31.7337 0.661733 31.8319 0.823576 31.8988C0.985418 31.9657 1.15886 32.0001 1.334 32L17 32L17 20L13 20L13 15L17 15L17 11C17 6.867 19.617 4.833 23.3 4.833C24.5445 4.82896 25.7883 4.89239 27.026 5.023L27.026 9.343L24.473 9.343C22.468 9.344 22 10.3 22 11.695L22 15L27 15L26 20L22 20L22.08 32L30.667 32C31.0205 32 31.3596 31.8596 31.6096 31.6096C31.8596 31.3596 32 31.0205 32 30.667L32 1.333C32 0.979467 31.8596 0.640413 31.6096 0.390427C31.3596 0.140441 31.0205 3.75128e-07 30.667 3.75128e-07Z" fill="rgb(255,255,255)" fill-rule="evenodd" />
</svg>
